<svg xmlns="http://www.w3.org/2000/svg" version="1.1" xmlns:xlink="http://www.w3.org/1999/xlink" xmlns:svgjs="http://svgjs.com/svgjs" width="1920" height="6000" preserveAspectRatio="none" viewBox="0 0 1920 6000"><g mask="url(&quot;#SvgjsMask1025&quot;)" fill="none"><rect width="1920" height="6000" x="0" y="0" fill="rgba(55, 59, 61, 1)"></rect><path d="M1442.0754058237471 3381.1786699426816L1312.7763471500098 3103.8959438014804 961.5017872750766 3436.4858948826873z" fill="rgba(80, 53, 121, 0.7)" class="triangle-float1"></path><path d="M25.00144570894372 2094.386802851122L-115.27443431260318 2395.2093983378977 325.82404119571953 2234.662682872669z" fill="rgba(80, 53, 121, 0.7)" class="triangle-float1"></path><path d="M218.27315114477224 4565.660602013526L-110.31072972709126 4501.790365671982-41.824143803475636 5026.601305150549z" fill="rgba(80, 53, 121, 0.7)" class="triangle-float3"></path><path d="M1193.3393005277933 984.3670953071354L1407.7369624628334 938.7954654561314 1232.1806867188072 639.9847874790732z" fill="rgba(80, 53, 121, 0.7)" class="triangle-float2"></path><path d="M276.4953204965737 1367.4845216378324L361.5388609573703 1769.4663022274622 632.6102280047683 1533.8275578514445z" fill="rgba(80, 53, 121, 0.7)" class="triangle-float1"></path><path d="M1194.537695996013 3816.6284980892024L1531.3062154476236 3863.9582269144203 1433.9165489596453 3335.1405833243957z" fill="rgba(80, 53, 121, 0.7)" class="triangle-float1"></path><path d="M136.3081247130373 3093.8411426295006L-95.99767846055495 3548.694797060118 350.199558819555 3533.113246189205z" fill="rgba(80, 53, 121, 0.7)" class="triangle-float1"></path><path d="M904.5536027173888 917.7862742179484L1178.394990299169 703.8379341576485 720.5517864178291 400.05002281512805z" fill="rgba(80, 53, 121, 0.7)" class="triangle-float3"></path><path d="M1880.8906741956964 6121.9917979394995L2003.6315063298086 5925.565406152048 1647.6215025815757 5839.667353844605z" fill="rgba(80, 53, 121, 0.7)" class="triangle-float2"></path><path d="M1036.8473442539891 941.4779487066313L1230.0703588513497 1320.699467060786 1416.0688626081437 748.2549341092708z" fill="rgba(80, 53, 121, 0.7)" class="triangle-float2"></path><path d="M1814.8367353904364 6139.032908316705L2071.972383710387 5798.478134021755 1702.5757715189839 5746.56282580814z" fill="rgba(80, 53, 121, 0.7)" class="triangle-float1"></path><path d="M404.0207371876703 2424.3838587132664L380.2492261443935 2084.435412865624-117.78768710543119 2290.0669023543605z" fill="rgba(80, 53, 121, 0.7)" class="triangle-float2"></path><path d="M1001.4382765118867 1565.7978597169538L717.6187430201618 1956.4419342915266 1392.0823510864595 1849.6173932086785z" fill="rgba(80, 53, 121, 0.7)" class="triangle-float2"></path><path d="M1105.1417618798687 3899.3206768131417L1527.8999937753304 3683.914598679137 889.7356837458635 3476.5624449176803z" fill="rgba(80, 53, 121, 0.7)" class="triangle-float2"></path><path d="M854.607492812288 4968.194912023554L439.2192140893431 5110.781902464952 724.5212779410951 5367.66903460359z" fill="rgba(80, 53, 121, 0.7)" class="triangle-float1"></path><path d="M777.8040337673485 5721.225536530141L1013.3662612931454 5509.124354182105 565.702851419313 5485.663309004344z" fill="rgba(80, 53, 121, 0.7)" class="triangle-float1"></path><path d="M251.2521328986457 3181.9369768819656L406.2062293862306 2676.8271641176952-45.556310008554306 2772.852256182769z" fill="rgba(80, 53, 121, 0.7)" class="triangle-float3"></path><path d="M749.6968997315963 1688.821175095225L539.2734446764886 1512.2549315674353 379.6358069123577 1916.173235913992z" fill="rgba(80, 53, 121, 0.7)" class="triangle-float2"></path><path d="M256.57977785750705 607.0816771188086L185.08494757619025 94.82774462822613-176.00279930190334 366.92687873070605z" fill="rgba(80, 53, 121, 0.7)" class="triangle-float3"></path><path d="M478.1019116064333 1237.647854228006L294.47900444105363 906.3833607398899-110.60628220843068 1347.4499682320175z" fill="rgba(80, 53, 121, 0.7)" class="triangle-float1"></path></g><defs><mask id="SvgjsMask1025"><rect width="1920" height="6000" fill="#ffffff"></rect></mask><style>
            @keyframes float1 {
                0%{transform: translate(0, 0)}
                50%{transform: translate(-10px, 0)}
                100%{transform: translate(0, 0)}
            }

            .triangle-float1 {
                animation: float1 5s infinite;
            }

            @keyframes float2 {
                0%{transform: translate(0, 0)}
                50%{transform: translate(-5px, -5px)}
                100%{transform: translate(0, 0)}
            }

            .triangle-float2 {
                animation: float2 4s infinite;
            }

            @keyframes float3 {
                0%{transform: translate(0, 0)}
                50%{transform: translate(0, -10px)}
                100%{transform: translate(0, 0)}
            }

            .triangle-float3 {
                animation: float3 6s infinite;
            }
        </style></defs></svg>