<svg xmlns="http://www.w3.org/2000/svg" fill="none" viewBox="0 0 107 32"><path fill="#1D252C" d="M0 4.375v23.234h15.312v-3.275H3.68v-6.736h11.009v-3.275H3.68V7.65h11.632V4.375H0Z"/><path fill="#1D252C" fill-rule="evenodd" d="M18.313 23.648a8.714 8.714 0 0 0 3.025 3.181c1.288.77 3.087 1.171 4.709 1.171 1.862 0 3.003-.135 4.779-1.171 1.776-1.036 3.86-3.475 3.86-7.672V4.001h-3.494v8.696a6.364 6.364 0 0 0-1.933-1.523c-1.04-.541-2.235-.811-3.587-.811-1.6 0-3.035.385-4.303 1.154-1.269.769-2.277 1.819-3.025 3.15-.749 1.33-1.123 2.827-1.123 4.49 0 1.663.364 3.16 1.091 4.491Zm10.353.343c-.769.478-1.642.717-2.62.717-.997 0-1.891-.239-2.681-.717a5.003 5.003 0 0 1-1.81-1.965c-.436-.852-.654-1.808-.654-2.869 0-1.06.218-2.006.655-2.838a4.927 4.927 0 0 1 1.84-1.964c.79-.479 1.673-.718 2.65-.718.978 0 1.851.24 2.62.718a4.927 4.927 0 0 1 1.84 1.964c.458.832.686 1.778.686 2.838s-.228 2.017-.686 2.87a4.93 4.93 0 0 1-1.84 1.964Z" clip-rule="evenodd"/><path fill="#1D252C" d="M38.319 27.609V10.737h3.524v16.872h-3.524Zm1.727-19.18a2.215 2.215 0 1 1 0-4.429h.07a2.215 2.215 0 1 1 0 4.43h-.07Z"/><path fill="#1D252C" d="M40.046 8.43a2.215 2.215 0 1 1 0-4.43h.07a2.215 2.215 0 1 1 0 4.43h-.07Zm4.202 2.307 5.8 16.872h3.213l3.976-12.01 3.976 12.01h3.181l5.832-16.872h-3.742l-3.807 11.474-3.834-11.474h-3.212l-3.86 11.474-3.78-11.474h-3.743Z"/><path fill="#1D252C" fill-rule="evenodd" d="M79.284 27.983c-1.684 0-3.18-.385-4.49-1.154a8.388 8.388 0 0 1-3.025-3.18c-.728-1.352-1.092-2.86-1.092-4.523 0-1.705.364-3.212 1.091-4.522.749-1.31 1.747-2.339 2.994-3.087 1.248-.77 2.662-1.154 4.242-1.154 1.268 0 2.401.218 3.399.655a7.202 7.202 0 0 1 2.526 1.809 7.63 7.63 0 0 1 1.56 2.588c.374.977.56 2.017.56 3.119 0 .27-.01.55-.03.842-.021.29-.063.56-.125.81H74.336c.04.724.203 1.38.489 1.965.436.853 1.04 1.518 1.809 1.996.79.478 1.684.717 2.682.717 1.018 0 1.881-.228 2.588-.686a5.012 5.012 0 0 0 1.715-1.777l2.87 1.403c-.333.79-.853 1.507-1.56 2.152-.686.624-1.518 1.123-2.495 1.497-.956.353-2.006.53-3.15.53Zm-4.46-11.944a5.138 5.138 0 0 0-.4 1.34h8.901a3.887 3.887 0 0 0-.33-1.434 4.023 4.023 0 0 0-1.559-1.902c-.686-.478-1.497-.717-2.432-.717-.936 0-1.767.239-2.495.717-.728.457-1.29 1.123-1.684 1.996Zm30.645 7.61a8.72 8.72 0 0 1-3.025 3.18c-1.29.77-3.088 1.171-4.71 1.171-1.862 0-3.003-.135-4.779-1.171-1.776-1.036-3.86-3.475-3.86-7.672V4.001h3.494v8.696a6.363 6.363 0 0 1 1.933-1.523c1.04-.541 2.235-.811 3.587-.811 1.6 0 3.035.385 4.303 1.154 1.269.769 2.277 1.819 3.025 3.15.749 1.33 1.123 2.827 1.123 4.49 0 1.663-.364 3.16-1.091 4.491Zm-10.354.342c.769.478 1.642.717 2.62.717.997 0 1.891-.239 2.681-.717a4.993 4.993 0 0 0 1.809-1.965c.437-.852.655-1.808.655-2.869 0-1.06-.218-2.006-.655-2.838a4.924 4.924 0 0 0-1.84-1.964c-.79-.479-1.673-.718-2.65-.718-.978 0-1.851.24-2.62.718a4.927 4.927 0 0 0-1.84 1.964c-.458.832-.686 1.778-.686 2.838s.228 2.017.686 2.87a4.93 4.93 0 0 0 1.84 1.964Z" clip-rule="evenodd"/></svg>