<svg xmlns="http://www.w3.org/2000/svg" width="106" height="49" class="sbis_ru-Header__logo-img sbis_ru-Header--anim"><path xmlns="http://www.w3.org/2000/svg" fill="#0c94ff" d="m91.4 32.47-8.051 16.413 17.376-23.323-.771-2.723 5.116-7.023-6.519 2.076.03.105-.029-.1-2.31 4.705-18.789-12.377Z"/><path xmlns="http://www.w3.org/2000/svg" fill="#333" d="m14.085 34.467 2.308.584a7 7 0 0 1-2.805 4.061 8.474 8.474 0 0 1-5.054 1.519 8.18 8.18 0 1 1 0-16.36 8.474 8.474 0 0 1 5.054 1.519 6.993 6.993 0 0 1 2.805 4.061l-2.308.584a5.344 5.344 0 0 0-5.551-4.061 5.716 5.716 0 0 0-5.872 6.077 5.716 5.716 0 0 0 5.872 6.077 5.346 5.346 0 0 0 5.551-4.061Zm27.564 2.483h-.029V24.709h-2.367v15.484h2.57l9.291-12.241h.029v12.241h2.4V24.709H50.91Zm-5.692-3.944c0 4.412-3.564 7.567-8.414 7.567-5.259 0-8.619-3.3-8.619-8.648.088-8.268 2.6-11.423 10.168-12.388a37.63 37.63 0 0 0 3.184-.467 14.71 14.71 0 0 0 2.366-.73l.818 1.957a19.994 19.994 0 0 1-5.989 1.315c-5.172.643-7.3 2.191-7.947 6.369h.029a8.41 8.41 0 0 1 6.4-2.542c4.586 0 8.004 3.161 8.004 7.567Zm-2.366-.058c0-3.389-2.366-5.522-5.9-5.522a6.512 6.512 0 0 0-4.5 1.519 5.046 5.046 0 0 0-1.694 4 5.221 5.221 0 0 0 1.665 4.031 6.323 6.323 0 0 0 4.383 1.491c3.5 0 6.047-2.221 6.047-5.522Zm31.491 5.58a5.716 5.716 0 0 1-5.873-6.077 5.716 5.716 0 0 1 5.873-6.077 5.345 5.345 0 0 1 5.551 4.061l2.309-.584a7 7 0 0 0-2.8-4.061 8.477 8.477 0 0 0-5.055-1.519 8.18 8.18 0 1 0 0 16.36 8.479 8.479 0 0 0 5.055-1.519 7 7 0 0 0 2.8-4.061l-2.308-.584a5.344 5.344 0 0 1-5.552 4.061Z"/></svg>